<svg xmlns="http://www.w3.org/2000/svg" width="512" height="512" viewBox="0 0 512 512">
  <defs>
    <!-- Main coral gradient background -->
    <linearGradient id="bgGradient" x1="0%" y1="0%" x2="100%" y2="100%">
      <stop offset="0%" stop-color="#f08c6e"/>
      <stop offset="50%" stop-color="#e87a5f"/>
      <stop offset="100%" stop-color="#d86a4f"/>
    </linearGradient>

    <!-- Subtle shadow for depth -->
    <filter id="softShadow" x="-20%" y="-20%" width="140%" height="140%">
      <feDropShadow dx="0" dy="4" stdDeviation="8" flood-color="#8b3d2a" flood-opacity="0.25"/>
    </filter>

    <!-- Inner glow for warmth -->
    <filter id="innerGlow" x="-10%" y="-10%" width="120%" height="120%">
      <feGaussianBlur in="SourceAlpha" stdDeviation="3" result="blur"/>
      <feOffset in="blur" dx="0" dy="2" result="offsetBlur"/>
      <feComposite in="SourceGraphic" in2="offsetBlur" operator="over"/>
    </filter>

    <!-- Gift box body gradient -->
    <linearGradient id="boxGradient" x1="0%" y1="0%" x2="0%" y2="100%">
      <stop offset="0%" stop-color="#ffffff"/>
      <stop offset="100%" stop-color="#f5ebe6"/>
    </linearGradient>

    <!-- Gift box lid gradient -->
    <linearGradient id="lidGradient" x1="0%" y1="0%" x2="0%" y2="100%">
      <stop offset="0%" stop-color="#ffffff"/>
      <stop offset="100%" stop-color="#faf5f2"/>
    </linearGradient>

    <!-- Ribbon gradient -->
    <linearGradient id="ribbonGradient" x1="0%" y1="0%" x2="100%" y2="0%">
      <stop offset="0%" stop-color="#ffd4c4"/>
      <stop offset="50%" stop-color="#ffbfa8"/>
      <stop offset="100%" stop-color="#ffd4c4"/>
    </linearGradient>

    <!-- Bow gradient -->
    <linearGradient id="bowGradient" x1="0%" y1="0%" x2="0%" y2="100%">
      <stop offset="0%" stop-color="#ffd4c4"/>
      <stop offset="100%" stop-color="#f5b8a0"/>
    </linearGradient>

    <!-- Sparkle gradient -->
    <radialGradient id="sparkleGradient" cx="50%" cy="50%" r="50%">
      <stop offset="0%" stop-color="#ffffff"/>
      <stop offset="100%" stop-color="#ffffff" stop-opacity="0"/>
    </radialGradient>
  </defs>

  <!-- Background with rounded corners -->
  <rect width="512" height="512" rx="76" fill="url(#bgGradient)"/>

  <!-- Subtle texture overlay -->
  <rect width="512" height="512" rx="76" fill="url(#bgGradient)" opacity="0.1">
    <animate attributeName="opacity" values="0.1;0.15;0.1" dur="4s" repeatCount="indefinite"/>
  </rect>

  <!-- Gift Box Group -->
  <g filter="url(#softShadow)" transform="translate(256, 270)">
    <!-- Box body -->
    <rect x="-100" y="-20" width="200" height="140" rx="16" fill="url(#boxGradient)"/>

    <!-- Box body side shading -->
    <rect x="-100" y="-20" width="200" height="140" rx="16" fill="#e8ddd6" opacity="0.3"/>
    <rect x="-96" y="-16" width="192" height="132" rx="14" fill="url(#boxGradient)"/>

    <!-- Vertical ribbon on box -->
    <rect x="-16" y="-20" width="32" height="140" fill="url(#ribbonGradient)"/>

    <!-- Lid -->
    <rect x="-115" y="-60" width="230" height="50" rx="12" fill="url(#lidGradient)"/>

    <!-- Lid bottom edge shadow -->
    <rect x="-115" y="-15" width="230" height="8" rx="4" fill="#d4c4bc" opacity="0.4"/>

    <!-- Horizontal ribbon on lid -->
    <rect x="-115" y="-45" width="230" height="28" rx="0" fill="url(#ribbonGradient)"/>

    <!-- Ribbon knot center -->
    <ellipse cx="0" cy="-85" rx="22" ry="16" fill="url(#bowGradient)"/>

    <!-- Bow left loop -->
    <path d="M-8,-85 Q-55,-120 -48,-85 Q-45,-55 -8,-75" fill="url(#bowGradient)"/>
    <path d="M-12,-83 Q-48,-110 -44,-83 Q-42,-60 -12,-76" fill="#ffd4c4"/>

    <!-- Bow right loop -->
    <path d="M8,-85 Q55,-120 48,-85 Q45,-55 8,-75" fill="url(#bowGradient)"/>
    <path d="M12,-83 Q48,-110 44,-83 Q42,-60 12,-76" fill="#ffd4c4"/>

    <!-- Bow tails -->
    <path d="M-15,-78 Q-35,-55 -55,-45 Q-45,-50 -40,-60 Q-25,-65 -10,-75" fill="url(#bowGradient)"/>
    <path d="M15,-78 Q35,-55 55,-45 Q45,-50 40,-60 Q25,-65 10,-75" fill="url(#bowGradient)"/>
  </g>

  <!-- Sparkles -->
  <g opacity="0.9">
    <!-- Top right sparkle -->
    <g transform="translate(390, 105)">
      <path d="M0,-18 L3,-3 L18,0 L3,3 L0,18 L-3,3 L-18,0 L-3,-3 Z" fill="#ffffff"/>
    </g>

    <!-- Top left smaller sparkle -->
    <g transform="translate(130, 130)">
      <path d="M0,-10 L2,-2 L10,0 L2,2 L0,10 L-2,2 L-10,0 L-2,-2 Z" fill="#ffffff" opacity="0.7"/>
    </g>

    <!-- Bottom sparkle -->
    <g transform="translate(410, 380)">
      <path d="M0,-8 L1.5,-1.5 L8,0 L1.5,1.5 L0,8 L-1.5,1.5 L-8,0 L-1.5,-1.5 Z" fill="#ffffff" opacity="0.6"/>
    </g>
  </g>
</svg>
