<svg xmlns="http://www.w3.org/2000/svg" width="32" height="32" viewBox="0 0 512 512">
  <defs>
    <linearGradient id="bg" x1="0%" y1="0%" x2="100%" y2="100%">
      <stop offset="0%" stop-color="#f08c6e"/>
      <stop offset="100%" stop-color="#d86a4f"/>
    </linearGradient>
    <linearGradient id="box" x1="0%" y1="0%" x2="0%" y2="100%">
      <stop offset="0%" stop-color="#ffffff"/>
      <stop offset="100%" stop-color="#f5ebe6"/>
    </linearGradient>
    <linearGradient id="ribbon" x1="0%" y1="0%" x2="100%" y2="0%">
      <stop offset="0%" stop-color="#ffd4c4"/>
      <stop offset="50%" stop-color="#ffbfa8"/>
      <stop offset="100%" stop-color="#ffd4c4"/>
    </linearGradient>
  </defs>

  <!-- Background -->
  <rect width="512" height="512" rx="102" fill="url(#bg)"/>

  <!-- Gift Box - Simplified for small sizes -->
  <g transform="translate(256, 275)">
    <!-- Box body -->
    <rect x="-110" y="-25" width="220" height="150" rx="20" fill="url(#box)"/>

    <!-- Vertical ribbon -->
    <rect x="-20" y="-25" width="40" height="150" fill="url(#ribbon)"/>

    <!-- Lid -->
    <rect x="-125" y="-70" width="250" height="55" rx="14" fill="#ffffff"/>

    <!-- Horizontal ribbon on lid -->
    <rect x="-125" y="-52" width="250" height="32" fill="url(#ribbon)"/>

    <!-- Bow center -->
    <ellipse cx="0" cy="-95" rx="26" ry="18" fill="#ffd4c4"/>

    <!-- Bow loops - simplified -->
    <ellipse cx="-45" cy="-100" rx="35" ry="25" fill="#ffd4c4" transform="rotate(-15 -45 -100)"/>
    <ellipse cx="45" cy="-100" rx="35" ry="25" fill="#ffd4c4" transform="rotate(15 45 -100)"/>

    <!-- Bow center overlay -->
    <ellipse cx="0" cy="-95" rx="22" ry="15" fill="#ffbfa8"/>
  </g>

  <!-- Single sparkle -->
  <path d="M400,100 L404,114 L418,118 L404,122 L400,136 L396,122 L382,118 L396,114 Z" fill="#ffffff"/>
</svg>
